<svg width="22" height="13" viewBox="0 0 22 13" fill="none" xmlns="http://www.w3.org/2000/svg">
<mask id="mask0" style="mask-type:alpha" maskUnits="userSpaceOnUse" x="0" y="0" width="22" height="13">
<path fill-rule="evenodd" clip-rule="evenodd" d="M1.21696 2.70636L10.2069 12.0702C10.7126 12.5977 11.5569 12.5977 12.0647 12.0702L21.0526 2.70636C21.604 2.13209 21.604 1.22551 21.0526 0.651243C20.469 0.0437432 19.497 0.0437432 18.9123 0.651243L11.3835 8.49371C11.2475 8.63597 11.0221 8.63597 10.8861 8.49371L3.35723 0.651243C2.77361 0.0437432 1.80161 0.0437432 1.21696 0.651243C0.942803 0.938897 0.804688 1.30859 0.804688 1.67828C0.804688 2.04901 0.942803 2.41871 1.21696 2.70636Z" fill="white"/>
</mask>
<g mask="url(#mask0)">
<path fill-rule="evenodd" clip-rule="evenodd" d="M1.21696 2.70636L10.2069 12.0702C10.7126 12.5977 11.5569 12.5977 12.0647 12.0702L21.0526 2.70636C21.604 2.13209 21.604 1.22551 21.0526 0.651243C20.469 0.0437432 19.497 0.0437432 18.9123 0.651243L11.3835 8.49371C11.2475 8.63597 11.0221 8.63597 10.8861 8.49371L3.35723 0.651243C2.77361 0.0437432 1.80161 0.0437432 1.21696 0.651243C0.942803 0.938897 0.804688 1.30859 0.804688 1.67828C0.804688 2.04901 0.942803 2.41871 1.21696 2.70636Z" fill="black"/>
</g>
</svg>
