<svg width="21" height="13" viewBox="0 0 21 13" fill="none" xmlns="http://www.w3.org/2000/svg">
<mask id="mask0" style="mask-type:alpha" maskUnits="userSpaceOnUse" x="0" y="0" width="21" height="13">
<path fill-rule="evenodd" clip-rule="evenodd" d="M20.2498 9.75946L11.2599 0.395654C10.7541 -0.131885 9.90988 -0.131885 9.40207 0.395654L0.414186 9.75946C-0.137237 10.3337 -0.137237 11.2403 0.414186 11.8146C0.997802 12.4221 1.9698 12.4221 2.55445 11.8146L10.0833 3.97212C10.2193 3.82985 10.4447 3.82985 10.5807 3.97212L18.1096 11.8146C18.6932 12.4221 19.6652 12.4221 20.2498 11.8146C20.524 11.5269 20.6621 11.1572 20.6621 10.7875C20.6621 10.4168 20.524 10.0471 20.2498 9.75946Z" fill="white"/>
</mask>
<g mask="url(#mask0)">
<path fill-rule="evenodd" clip-rule="evenodd" d="M20.2498 9.75946L11.2599 0.395654C10.7541 -0.131885 9.90988 -0.131885 9.40207 0.395654L0.414186 9.75946C-0.137237 10.3337 -0.137237 11.2403 0.414186 11.8146C0.997802 12.4221 1.9698 12.4221 2.55445 11.8146L10.0833 3.97212C10.2193 3.82985 10.4447 3.82985 10.5807 3.97212L18.1096 11.8146C18.6932 12.4221 19.6652 12.4221 20.2498 11.8146C20.524 11.5269 20.6621 11.1572 20.6621 10.7875C20.6621 10.4168 20.524 10.0471 20.2498 9.75946Z" fill="black"/>
</g>
</svg>
