<svg width="1440" height="149" viewBox="0 0 1440 149" fill="none" xmlns="http://www.w3.org/2000/svg">
<path d="M-20.8955 20.6825C-26.2714 19.8549 -28.7546 18.7989 -27.7995 17.7465C-26.8445 16.694 -22.5293 15.7312 -15.8019 15.0695C51.2799 9.04156 127.409 4.70553 208.194 2.31151C333.345 -1.53249 526.966 -2.4775 738.618 14.8645C891.768 27.4125 1051.88 31.2925 1214.51 26.3915C1287.11 24.2588 1355.65 20.4118 1416.31 15.0645C1423.06 14.4136 1431.63 14.1168 1440.16 14.2388C1448.68 14.3607 1456.47 14.8916 1461.83 15.7158C1467.18 16.54 1469.67 17.5909 1468.76 18.6396C1467.84 19.6883 1463.59 20.6501 1456.93 21.3155C1389.85 27.3435 1313.72 31.6795 1232.93 34.0735C1183.13 35.6052 1131.99 36.3813 1080.65 36.3845C971.735 36.3855 840.995 32.8675 702.508 21.5205C549.366 8.97251 389.244 5.09251 226.615 9.99351C154.012 12.1262 85.4741 15.9732 24.8166 21.3205C18.0615 21.9794 9.45643 22.2822 0.887646 22.1626C-7.68114 22.043 -15.5146 21.5107 -20.8955 20.6825ZM1416.31 71.0645C1355.65 76.4118 1287.11 80.2588 1214.51 82.3915C1051.88 87.2915 891.768 83.4115 738.618 70.8645C526.966 53.5245 333.345 54.4675 208.186 58.3115C127.404 60.7057 51.2775 65.0417 -15.8019 71.0695C-22.461 71.7349 -26.712 72.6967 -27.6297 73.7454C-28.5473 74.7941 -26.0573 75.845 -20.7016 76.6692C-15.346 77.4934 -7.5582 78.0243 0.966671 78.1462C9.49155 78.2682 18.0634 77.9715 24.8166 77.3205C85.4741 71.9732 154.012 68.1262 226.615 65.9935C389.244 61.0915 549.358 64.9735 702.508 77.5205C840.995 88.8675 971.735 92.3855 1080.65 92.3845C1215.81 92.3193 1347.4 87.0492 1456.93 77.3155C1463.51 76.6471 1467.69 75.6876 1468.57 74.6437C1469.45 73.5999 1466.96 72.5553 1461.63 71.7354C1456.3 70.9154 1448.56 70.3856 1440.09 70.2603C1431.61 70.135 1423.07 70.4232 1416.31 71.0645ZM1416.31 127.064C1355.65 132.412 1287.11 136.259 1214.51 138.392C1051.88 143.292 891.768 139.412 738.618 126.865C526.966 109.524 333.345 110.468 208.186 114.312C127.404 116.706 51.2775 121.042 -15.8019 127.07C-22.461 127.735 -26.712 128.697 -27.6297 129.745C-28.5473 130.794 -26.0573 131.845 -20.7016 132.669C-15.346 133.493 -7.5582 134.024 0.966671 134.146C9.49155 134.268 18.0634 133.971 24.8166 133.321C85.4741 127.973 154.012 124.126 226.615 121.993C389.244 117.09 549.358 120.974 702.508 133.521C840.995 144.868 971.735 148.386 1080.65 148.385C1215.81 148.319 1347.4 143.049 1456.93 133.316C1463.51 132.647 1467.69 131.688 1468.57 130.644C1469.45 129.6 1466.96 128.555 1461.63 127.735C1456.3 126.915 1448.56 126.386 1440.09 126.26C1431.61 126.135 1423.07 126.424 1416.31 127.066V127.064Z" fill="black"/>
</svg>
