<svg width="78" height="78" viewBox="0 0 78 78" fill="none" xmlns="http://www.w3.org/2000/svg">
<g clip-path="url(#clip0)">
<path d="M71.982 31.3828H52.482C52.1469 31.3828 51.8727 31.657 51.8727 31.9922V35.6484C51.8727 35.9836 52.1469 36.2578 52.482 36.2578H71.982C72.3172 36.2578 72.5914 35.9836 72.5914 35.6484V31.9922C72.5914 31.657 72.3172 31.3828 71.982 31.3828ZM61.775 41.7422H52.482C52.1469 41.7422 51.8727 42.0164 51.8727 42.3516V46.0078C51.8727 46.343 52.1469 46.6172 52.482 46.6172H61.775C62.1102 46.6172 62.3844 46.343 62.3844 46.0078V42.3516C62.3844 42.0164 62.1102 41.7422 61.775 41.7422ZM36.3564 24.5654H33.0582C32.5859 24.5654 32.2051 24.9463 32.2051 25.4186V44.3092C32.2051 44.5834 32.3346 44.8348 32.5555 44.9947L43.8975 53.267C44.2783 53.5412 44.8115 53.465 45.0857 53.0842L47.0434 50.4105V50.4029C47.3176 50.0221 47.2338 49.4889 46.8529 49.2146L37.202 42.2373V25.4186C37.2096 24.9463 36.8211 24.5654 36.3564 24.5654Z" fill="black"/>
<path d="M61.3032 51.3323H56.9004C56.4739 51.3323 56.0702 51.5532 55.8417 51.9188C54.8743 53.4499 53.7469 54.8667 52.452 56.1616C50.2202 58.3934 47.6227 60.1454 44.7358 61.3641C41.7422 62.6286 38.5659 63.2684 35.2905 63.2684C32.0075 63.2684 28.8311 62.6286 25.8452 61.3641C22.9583 60.1454 20.3608 58.3934 18.129 56.1616C15.8971 53.9298 14.1452 51.3323 12.9264 48.4454C11.662 45.4594 11.0221 42.2831 11.0221 39.0001C11.0221 35.7171 11.662 32.5483 12.9264 29.5548C14.1452 26.6679 15.8971 24.0704 18.129 21.8386C20.3608 19.6067 22.9583 17.8548 25.8452 16.636C28.8311 15.3716 32.0151 14.7317 35.2905 14.7317C38.5735 14.7317 41.7499 15.3716 44.7358 16.636C47.6227 17.8548 50.2202 19.6067 52.452 21.8386C53.7469 23.1335 54.8743 24.5503 55.8417 26.0813C56.0702 26.447 56.4739 26.6679 56.9004 26.6679H61.3032C61.8288 26.6679 62.1639 26.1194 61.9278 25.6548C56.9614 15.7753 46.8915 9.35398 35.6485 9.22449C19.1877 9.01883 5.5149 22.4936 5.48443 38.9391C5.45396 55.4151 18.8069 68.7833 35.2829 68.7833C46.6706 68.7833 56.9081 62.3391 61.9278 52.3454C62.1639 51.8807 61.8211 51.3323 61.3032 51.3323Z" fill="black"/>
</g>
<defs>
<clipPath id="clip0">
<rect width="78" height="78" fill="white"/>
</clipPath>
</defs>
</svg>
