<svg width="62" height="62" viewBox="0 0 62 62" fill="none" xmlns="http://www.w3.org/2000/svg">
<path d="M61.3834 6.09686C61.7788 6.49357 62.0009 7.03087 62.0009 7.59103C62.0009 8.15118 61.7788 8.68849 61.3834 9.08519L56.9686 13.5042L48.503 5.03866L52.9178 0.619649C53.3147 0.222888 53.8529 0 54.4141 0C54.9753 0 55.5135 0.222888 55.9104 0.619649L61.3834 6.09262V6.09686ZM53.976 16.4925L45.5105 8.027L16.6726 36.8691C16.4396 37.102 16.2643 37.3861 16.1604 37.6987L12.753 47.9167C12.6912 48.1029 12.6825 48.3027 12.7277 48.4937C12.7729 48.6847 12.8704 48.8593 13.0092 48.9981C13.1479 49.1369 13.3226 49.2343 13.5135 49.2795C13.7045 49.3248 13.9043 49.316 14.0906 49.2542L24.3085 45.8468C24.6207 45.7442 24.9048 45.5703 25.1381 45.3389L53.976 16.4968V16.4925Z" fill="black"/>
<path fill-rule="evenodd" clip-rule="evenodd" d="M0 55.0276C0 56.7115 0.668927 58.3264 1.85963 59.5171C3.05032 60.7078 4.66526 61.3767 6.34916 61.3767H52.9097C54.5936 61.3767 56.2085 60.7078 57.3992 59.5171C58.5899 58.3264 59.2588 56.7115 59.2588 55.0276V29.6309C59.2588 29.0696 59.0358 28.5313 58.6389 28.1344C58.242 27.7375 57.7037 27.5146 57.1424 27.5146C56.5811 27.5146 56.0428 27.7375 55.6459 28.1344C55.249 28.5313 55.026 29.0696 55.026 29.6309V55.0276C55.026 55.5889 54.8031 56.1272 54.4062 56.5241C54.0093 56.921 53.471 57.144 52.9097 57.144H6.34916C5.78786 57.144 5.24955 56.921 4.85265 56.5241C4.45575 56.1272 4.23277 55.5889 4.23277 55.0276V8.46708C4.23277 7.90578 4.45575 7.36747 4.85265 6.97057C5.24955 6.57367 5.78786 6.35069 6.34916 6.35069H33.8622C34.4235 6.35069 34.9618 6.12772 35.3587 5.73082C35.7556 5.33392 35.9786 4.79561 35.9786 4.23431C35.9786 3.67301 35.7556 3.13469 35.3587 2.73779C34.9618 2.3409 34.4235 2.11792 33.8622 2.11792H6.34916C4.66526 2.11792 3.05032 2.78685 1.85963 3.97755C0.668927 5.16824 0 6.78318 0 8.46708V55.0276Z" fill="black"/>
</svg>
