<svg width="73" height="75" viewBox="0 0 73 75" fill="none" xmlns="http://www.w3.org/2000/svg">
<path d="M61.1228 31.5614L70.3607 48.1897L61.1228 50.0373V61.1228H55.58L44.4945 59.2752L42.6469 72.2083H14.9331L11.2379 53.0285C5.54737 47.641 2 40.016 2 31.5614C2 15.2343 15.2343 2 31.5614 2C47.8885 2 61.1228 15.2343 61.1228 31.5614Z" stroke="black" stroke-width="4" stroke-linecap="round" stroke-linejoin="round"/>
<path d="M22.3242 27.8662C22.3242 26.0391 22.866 24.2531 23.8811 22.7339C24.8962 21.2147 26.3389 20.0307 28.027 19.3315C29.715 18.6323 31.5724 18.4494 33.3644 18.8058C35.1564 19.1623 36.8024 20.0421 38.0944 21.334C39.3863 22.626 40.2661 24.272 40.6226 26.064C40.979 27.856 40.7961 29.7134 40.0969 31.4014C39.3977 33.0895 38.2137 34.5322 36.6945 35.5473C35.1753 36.5624 33.3892 37.1042 31.5622 37.1042V42.6469" stroke="black" stroke-width="4" stroke-linecap="round" stroke-linejoin="round"/>
<path d="M31.5605 53.7324V55.58" stroke="black" stroke-width="4" stroke-linecap="round" stroke-linejoin="round"/>
</svg>
